<svg width="800" height="800" viewBox="0 0 800 800" fill="none" xmlns="http://www.w3.org/2000/svg">
<g clip-path="url(#clip0_8_13)">
<path d="M450.391 237.891C449.09 239.786 447.674 240.577 445.996 241.162C440.541 243.065 435.537 243.941 429.15 244.726C419.389 245.927 408.877 247.91 399.268 250C386.975 252.674 374.912 256.292 362.939 260.156C352.094 263.657 341.381 267.594 330.859 271.973C320.85 276.138 311.027 280.82 301.367 285.742C293.139 289.935 285.074 294.43 277.148 299.17C269.015 304.034 261.025 309.17 253.223 314.551C244.29 320.711 235.655 327.227 227.051 333.838C222.062 337.67 217.03 341.502 212.305 345.654C209.115 348.457 209.423 348.903 205.273 351.709C202.093 353.859 198.21 353.553 194.629 351.855C191.048 350.158 185.107 346.631 185.107 346.631C185.107 346.631 192.239 341.3 197.852 337.402C197.749 337.419 197.605 337.487 197.51 337.5C193.943 337.992 189.353 336.662 185.791 336.133C183.629 335.812 181.382 335.718 179.199 335.84C174.451 336.105 169.801 337.209 165.137 338.135C142.152 342.694 119.179 347.603 96.6797 354.15C80.4705 358.867 64.4268 364.278 48.8769 370.85C43.7058 373.035 38.4645 375.238 33.8379 378.418C29.5717 381.35 25.5855 384.816 22.3633 388.867C19.3208 392.693 17.2204 397.239 15.1367 401.66C13.1923 405.786 11.1555 409.933 10.2539 414.404C8.8508 421.363 9.52746 428.595 9.57031 435.693C9.61647 443.341 9.84533 451.031 10.5957 458.642C11.3652 466.447 12.5002 473.219 12.8418 481.055C12.9133 482.694 12.8851 485.371 12.207 486.865C11.6967 487.99 11.5883 488.222 11.2305 489.404C10.9079 490.47 11.4276 491.652 11.8652 492.676C12.913 495.126 14.5707 497.334 16.4551 499.219C17.3973 500.161 18.7587 500.598 19.7266 501.514C21.1383 502.849 21.9574 504.737 23.3398 506.103C26.275 509.004 29.4923 511.721 33.1543 513.623C38.3322 516.312 44.1617 517.613 49.8535 518.896C55.9827 520.278 62.2929 520.968 68.5547 521.484C72.9076 521.843 76.6039 522.311 81.6406 521.826C85.2429 521.758 84.6708 521.79 87.9394 521.728C85.2699 514.078 83.7891 505.827 83.7891 497.266C83.7891 456.318 117.011 423.144 157.959 423.144C198.907 423.144 232.08 456.318 232.08 497.266C232.08 504.807 230.951 512.088 228.857 518.945C231.199 518.905 230.747 518.939 233.252 518.896C395.957 516.915 479.965 514.188 603.32 512.353C605.488 512.321 607.579 512.251 609.717 512.207C608.45 506.776 607.764 501.129 607.764 495.312C607.764 454.365 640.937 421.191 681.885 421.191C722.832 421.191 756.055 454.365 756.055 495.312C756.055 497.872 755.917 500.388 755.664 502.881C757.898 502.497 760.053 501.811 762.109 500.879C766.411 498.929 770.273 496.012 773.926 493.017C777.865 489.788 781.432 486.12 784.717 482.226C786.787 479.773 789.434 477.461 790.283 474.365C791.355 470.457 789.516 471.348 789.307 462.207C788.976 447.798 789.32 433.373 788.33 418.994C787.937 413.294 787.824 406.803 786.377 401.953C785.869 400.25 784.24 398.584 783.105 397.217C782.06 395.957 780.006 395.72 779.834 394.092C779.18 387.9 779.11 381.43 778.809 375.098C778.614 371.012 778.848 366.913 778.516 362.842C778.475 363.115 778.403 363.404 778.32 363.672C777.906 365.007 776.386 365.708 775.732 366.943C775.038 368.256 774.662 369.728 774.414 371.191C773.93 374.045 773.944 376.991 774.072 379.883C774.207 382.906 775.01 385.85 775.244 388.867C775.392 390.772 776.168 392.883 775.391 394.629C774.808 395.938 773.443 396.865 772.119 397.412C769.538 398.477 766.54 398.394 763.77 398.047C760.91 397.688 758.039 396.744 755.566 395.264C750.696 392.347 747.106 387.68 743.115 383.642C736.57 377.021 729.936 370.412 724.316 362.988C722.881 361.092 720.963 359.276 720.557 356.933C720.204 354.898 720.631 352.564 721.826 350.879C724.122 347.642 728.403 346.393 731.982 344.678C736.217 342.649 740.681 340.918 745.264 339.892C748.581 339.15 752.02 338.939 755.42 338.916C758.706 338.894 762.074 338.846 765.234 339.746C768.122 340.568 771.116 341.728 773.242 343.848C773.525 344.129 773.792 344.452 774.023 344.775C771.924 339.787 768.777 335.395 765.674 330.957C765.073 330.737 758.238 328.201 754.443 327.295C751.703 326.64 746.582 326.66 746.582 326.66C746.582 326.66 739.957 317.057 736.279 312.549C731.81 307.069 727.086 301.809 722.021 296.875C716.505 291.5 710.655 286.406 704.492 281.787C698.399 277.22 685.352 269.336 685.352 269.336L696.094 264.014C694.496 262.246 696.694 257.664 695.02 255.615C693.75 254.061 691.625 254.061 688.965 254.004C681.761 253.849 675.011 253.46 667.822 252.978C658.609 252.362 649.487 250.913 640.332 249.707C631.256 248.511 622.234 246.75 613.135 245.752C594.31 243.686 575.41 242.413 556.494 241.504C535.773 240.508 514.973 240.842 494.238 240.185C486.485 239.94 478.743 239.615 470.996 239.209C464.115 238.849 457.277 237.727 450.391 237.891ZM504.395 256.396C504.395 256.396 519.568 256.419 527.148 256.738C538.081 257.199 549.012 258.064 559.912 259.033C571.067 260.025 582.223 261.07 593.311 262.646C601.377 263.793 609.773 265.224 617.383 266.894C619.206 267.295 621.756 268.447 621.826 270.312C622.256 281.791 622.326 292.716 622.461 303.906C622.605 315.858 622.607 339.746 622.607 339.746C622.607 339.746 582.112 340.069 561.865 340.43C539.866 340.821 495.898 342.041 495.898 342.041L504.395 256.396ZM468.701 256.592C468.701 256.592 463.492 285.491 460.205 299.805C456.744 314.875 448.389 344.678 448.389 344.678C448.389 344.678 424.16 345.714 412.061 346.631C389.641 348.33 367.262 350.634 344.922 353.174C336.5 354.131 320.996 355.322 320.996 355.322C320.996 355.322 321.074 349.178 320.215 346.289C319.351 343.387 315.967 338.281 315.967 338.281L328.857 286.377C328.857 286.377 343.363 280.072 350.83 277.539C362.417 273.609 374.278 270.553 386.182 267.725C398.199 264.869 410.343 262.329 422.559 260.498C432.108 259.067 441.741 258.333 451.367 257.568C457.144 257.11 468.701 256.592 468.701 256.592ZM641.455 273.096C641.455 273.096 652.067 275.666 657.178 277.539C664.333 280.161 671.402 283.162 677.978 287.012C686.203 291.827 693.91 297.622 701.074 303.906C705.95 308.183 711.062 312.471 714.502 317.969C717.545 322.832 715.987 322.612 711.523 324.707C702.232 329.068 691.886 330.749 681.885 333.057C672.319 335.264 652.93 338.281 652.93 338.281L641.455 273.096ZM321.338 289.648C317.867 303.844 312.876 319.161 309.375 333.35C309.375 333.35 303.976 332.107 301.367 332.373C299.128 332.601 295.026 333.942 292.041 335.498C289.436 336.856 286.304 338.859 284.033 340.723C281.586 342.731 278.779 346.315 277.637 349.267C275.978 353.554 277.637 361.67 277.637 361.67C277.637 361.67 271.153 362.258 266.992 362.695C262.854 363.131 254.541 363.672 254.541 363.672C254.541 363.672 258.578 346.892 261.426 338.769C263.351 333.278 268.311 322.705 268.311 322.705C268.311 322.705 274.394 316.776 277.783 314.209C284.276 309.29 291.347 305.133 298.437 301.123C305.874 296.918 321.338 289.648 321.338 289.648ZM109.814 367.871C110.973 367.841 112.098 367.973 113.086 368.555C114.055 369.125 114.786 370.413 114.697 371.533C114.543 373.47 112.45 374.741 111.084 376.123C106.553 380.706 101.091 384.224 96.0449 388.232C88.9834 393.842 82.2212 399.871 74.7559 404.932C71.5168 407.127 68.242 409.361 64.5996 410.791C61.3704 412.059 57.8761 412.585 54.4434 413.086C48.0558 414.018 41.6108 414.492 35.1562 414.404C32.8538 414.373 30.2116 415.01 28.2715 413.769C26.9938 412.953 26.9419 410.984 25.9766 409.814C24.4993 408.025 22.5789 406.591 20.7031 405.225C19.6742 404.475 17.6512 404.525 17.4316 403.271C16.776 399.527 22.0493 397.199 24.6582 394.433C27.097 391.848 29.2073 388.544 32.5195 387.256C34.0455 386.662 35.8088 387.632 37.4023 387.256C41.4408 386.302 44.7175 383.315 48.5352 381.689C53.3316 379.647 58.3301 378.049 63.2812 376.416C68.2659 374.772 73.259 373.024 78.3691 371.826C82.8943 370.765 87.4777 370.107 92.0898 369.531C96.0028 369.043 99.9663 368.718 103.906 368.555C105.815 368.475 107.883 367.921 109.814 367.871ZM681.885 430.469C646.076 430.469 617.041 459.504 617.041 495.312C617.041 531.121 646.076 560.156 681.885 560.156C717.693 560.156 746.728 531.121 746.728 495.312C746.728 459.504 717.693 430.469 681.885 430.469ZM157.959 432.422C122.151 432.422 93.1152 461.457 93.1152 497.266C93.1152 533.074 122.151 562.109 157.959 562.109C193.767 562.109 222.754 533.074 222.754 497.266C222.754 461.457 193.767 432.422 157.959 432.422ZM681.885 448.144C707.929 448.144 729.053 469.269 729.053 495.312C729.053 521.356 707.929 542.48 681.885 542.48C655.841 542.48 634.766 521.356 634.766 495.312C634.766 469.269 655.841 448.144 681.885 448.144ZM157.959 450.098C184.003 450.098 205.078 471.222 205.078 497.266C205.078 523.309 184.003 544.433 157.959 544.433C131.915 544.433 110.791 523.309 110.791 497.266C110.791 471.222 131.915 450.098 157.959 450.098Z" fill="black"/>
</g>
<defs>
<clipPath id="clip0_8_13">
<rect width="800" height="800" fill="white"/>
</clipPath>
</defs>
</svg>
