<svg width="783" height="328" viewBox="0 0 783 328" fill="none" xmlns="http://www.w3.org/2000/svg">
<rect width="783" height="328" fill="#1E1E1E"/>
<path d="M441.391 0.890529C440.09 2.78575 438.674 3.57684 436.996 4.16201C431.541 6.06456 426.537 6.94094 420.15 7.72647C410.389 8.927 399.877 10.9096 390.268 12.9999C377.975 15.6738 365.912 19.2922 353.939 23.1562C343.094 26.6565 332.381 30.5941 321.859 34.9726C311.85 39.1378 302.027 43.8197 292.367 48.7421C284.139 52.935 276.074 57.4299 268.148 62.1698C260.015 67.0343 252.025 72.1702 244.223 77.5507C235.29 83.7109 226.655 90.2272 218.051 96.8378C213.062 100.67 208.03 104.502 203.305 108.654C200.115 111.457 200.423 111.903 196.273 114.709C193.093 116.859 189.21 116.553 185.629 114.855C182.048 113.158 176.107 109.631 176.107 109.631C176.107 109.631 183.239 104.3 188.852 100.402C188.749 100.419 188.605 100.487 188.51 100.5C184.943 100.992 180.353 99.6618 176.791 99.1327C174.629 98.8115 172.382 98.718 170.199 98.8397C165.451 99.1045 160.801 100.209 156.137 101.135C133.152 105.694 110.179 110.603 87.6797 117.15C71.4705 121.867 55.4268 127.278 39.8769 133.85C34.7058 136.035 29.4645 138.238 24.8379 141.418C20.5717 144.35 16.5855 147.816 13.3633 151.867C10.3208 155.693 8.22036 160.239 6.13671 164.66C4.19231 168.786 2.15545 172.933 1.2539 177.404C-0.149196 184.363 0.527463 191.595 0.570308 198.693C0.616469 206.341 0.845334 214.031 1.5957 221.642C2.36516 229.447 3.5002 236.219 3.84179 244.055C3.91327 245.694 3.88512 248.371 3.20703 249.865C2.69671 250.99 2.58834 251.222 2.23046 252.404C1.90788 253.47 2.42757 254.652 2.86523 255.676C3.91295 258.126 5.5707 260.334 7.45507 262.219C8.39726 263.161 9.75871 263.598 10.7266 264.514C12.1383 265.849 12.9574 267.737 14.3398 269.103C17.275 272.004 20.4923 274.721 24.1543 276.623C29.3322 279.312 35.1617 280.613 40.8535 281.896C46.9827 283.278 53.2929 283.968 59.5547 284.484C63.9076 284.843 67.6039 285.311 72.6406 284.826C76.2429 284.758 75.6708 284.79 78.9394 284.728C76.2699 277.078 74.7891 268.827 74.7891 260.266C74.7891 219.318 108.011 186.144 148.959 186.144C189.907 186.144 223.08 219.318 223.08 260.266C223.08 267.807 221.951 275.088 219.857 281.945C222.199 281.905 221.747 281.939 224.252 281.896C386.957 279.915 470.965 277.188 594.32 275.353C596.488 275.321 598.579 275.251 600.717 275.207C599.45 269.776 598.764 264.129 598.764 258.312C598.764 217.365 631.937 184.191 672.885 184.191C713.832 184.191 747.055 217.365 747.055 258.312C747.055 260.872 746.917 263.388 746.664 265.881C748.899 265.497 751.053 264.811 753.109 263.879C757.411 261.929 761.273 259.012 764.926 256.017C768.865 252.788 772.432 249.12 775.717 245.226C777.787 242.773 780.434 240.461 781.283 237.365C782.355 233.457 780.517 234.348 780.307 225.207C779.976 210.798 780.32 196.373 779.33 181.994C778.937 176.294 778.824 169.803 777.377 164.953C776.869 163.25 775.24 161.584 774.105 160.217C773.06 158.957 771.006 158.72 770.834 157.092C770.18 150.9 770.11 144.43 769.809 138.098C769.614 134.012 769.848 129.913 769.516 125.842C769.475 126.115 769.403 126.404 769.32 126.672C768.906 128.007 767.386 128.708 766.732 129.943C766.038 131.256 765.662 132.728 765.414 134.191C764.93 137.045 764.944 139.991 765.072 142.883C765.207 145.906 766.01 148.85 766.244 151.867C766.392 153.772 767.168 155.883 766.391 157.629C765.808 158.938 764.443 159.866 763.119 160.412C760.538 161.477 757.54 161.394 754.77 161.047C751.91 160.688 749.039 159.744 746.566 158.264C741.696 155.347 738.106 150.68 734.115 146.642C727.57 140.021 720.936 133.412 715.316 125.988C713.881 124.092 711.963 122.276 711.557 119.933C711.204 117.898 711.631 115.564 712.826 113.879C715.122 110.642 719.403 109.393 722.982 107.678C727.217 105.649 731.681 103.918 736.264 102.892C739.581 102.15 743.02 101.939 746.42 101.916C749.706 101.894 753.074 101.846 756.234 102.746C759.122 103.568 762.116 104.728 764.242 106.848C764.525 107.129 764.792 107.452 765.023 107.775C762.924 102.787 759.777 98.395 756.674 93.9569C756.073 93.7368 749.238 91.2011 745.443 90.2948C742.703 89.6403 737.582 89.6601 737.582 89.6601C737.582 89.6601 730.957 80.0574 727.279 75.5487C722.81 70.0694 718.086 64.8093 713.021 59.8749C707.505 54.5004 701.655 49.4058 695.492 44.787C689.399 40.2205 676.352 32.3358 676.352 32.3358L687.094 27.0136C685.496 25.246 687.694 20.6641 686.02 18.6151C684.75 17.0611 682.625 17.0608 679.965 17.0038C672.761 16.8494 666.011 16.4595 658.822 15.9784C649.609 15.3619 640.487 13.9135 631.332 12.7069C622.256 11.5108 613.235 9.75037 604.135 8.75186C585.31 6.6862 566.41 5.41297 547.494 4.50381C526.773 3.50789 505.973 3.84169 485.238 3.18545C477.485 2.94006 469.743 2.61459 461.996 2.20889C455.115 1.84853 448.277 0.726529 441.391 0.890529ZM495.395 19.3964C495.395 19.3964 510.568 19.4185 518.148 19.7382C529.081 20.1991 540.013 21.0642 550.912 22.0331C562.067 23.0247 573.223 24.0699 584.311 25.6464C592.377 26.7934 600.773 28.224 608.383 29.8944C610.206 30.2947 612.756 31.4468 612.826 33.3124C613.256 44.7906 613.326 55.7161 613.461 66.9062C613.605 78.8583 613.607 102.746 613.607 102.746C613.607 102.746 573.112 103.069 552.865 103.43C530.866 103.821 486.898 105.041 486.898 105.041L495.395 19.3964ZM459.701 19.5917C459.701 19.5917 454.492 48.4913 451.205 62.8046C447.744 77.8748 439.389 107.678 439.389 107.678C439.389 107.678 415.16 108.714 403.061 109.631C380.641 111.33 358.262 113.634 335.922 116.174C327.5 117.131 311.996 118.322 311.996 118.322C311.996 118.322 312.074 112.178 311.215 109.289C310.351 106.387 306.967 101.281 306.967 101.281L319.857 49.3769C319.857 49.3769 334.363 43.0718 341.83 40.539C353.417 36.6087 365.278 33.5533 377.182 30.7245C389.199 27.8688 401.343 25.3291 413.559 23.498C423.108 22.0665 432.741 21.3325 442.367 20.5683C448.144 20.1096 459.701 19.5917 459.701 19.5917ZM632.455 36.0956C632.455 36.0956 643.067 38.666 648.178 40.539C655.333 43.1611 662.402 46.1616 668.979 50.0116C677.203 54.8267 684.91 60.6216 692.074 66.9062C696.95 71.1829 702.062 75.4706 705.502 80.9687C708.545 85.8317 706.987 85.6118 702.523 87.7069C693.232 92.0677 682.886 93.7492 672.885 96.0565C663.319 98.2636 643.93 101.281 643.93 101.281L632.455 36.0956ZM312.338 52.6483C308.867 66.8445 303.876 82.1609 300.375 96.3495C300.375 96.3495 294.976 95.1068 292.367 95.3729C290.128 95.6013 286.026 96.9415 283.041 98.4979C280.436 99.856 277.304 101.859 275.033 103.723C272.587 105.731 269.779 109.315 268.637 112.267C266.978 116.554 268.637 124.67 268.637 124.67C268.637 124.67 262.153 125.258 257.992 125.695C253.854 126.131 245.541 126.672 245.541 126.672C245.541 126.672 249.578 109.892 252.426 101.769C254.351 96.2779 259.311 85.705 259.311 85.705C259.311 85.705 265.394 79.7761 268.783 77.2089C275.276 72.29 282.347 68.1329 289.438 64.123C296.874 59.9176 312.338 52.6483 312.338 52.6483ZM100.814 130.871C101.973 130.841 103.098 130.973 104.086 131.555C105.055 132.125 105.786 133.413 105.697 134.533C105.543 136.471 103.45 137.741 102.084 139.123C97.5534 143.706 92.0905 147.224 87.0449 151.232C79.9834 156.842 73.2212 162.871 65.7559 167.932C62.5168 170.127 59.242 172.361 55.5996 173.791C52.3704 175.059 48.8761 175.585 45.4434 176.086C39.0558 177.018 32.6108 177.492 26.1562 177.404C23.8538 177.373 21.2116 178.01 19.2715 176.769C17.9938 175.953 17.9419 173.984 16.9766 172.814C15.4993 171.025 13.5789 169.591 11.7031 168.225C10.6742 167.475 8.65119 167.525 8.43164 166.271C7.77595 162.527 13.0493 160.199 15.6582 157.434C18.097 154.848 20.2073 151.544 23.5195 150.256C25.0455 149.662 26.8088 150.632 28.4023 150.256C32.4408 149.302 35.7175 146.315 39.5352 144.689C44.3316 142.647 49.3301 141.049 54.2812 139.416C59.2659 137.772 64.259 136.024 69.3691 134.826C73.8943 133.765 78.4777 133.107 83.0898 132.531C87.0028 132.043 90.9663 131.718 94.9062 131.555C96.8149 131.475 98.883 130.921 100.814 130.871ZM672.885 193.469C637.076 193.469 608.041 222.504 608.041 258.312C608.041 294.121 637.076 323.156 672.885 323.156C708.693 323.156 737.729 294.121 737.729 258.312C737.729 222.504 708.693 193.469 672.885 193.469ZM148.959 195.422C113.151 195.422 84.1152 224.457 84.1152 260.266C84.1152 296.074 113.151 325.109 148.959 325.109C184.767 325.109 213.754 296.074 213.754 260.266C213.754 224.457 184.767 195.422 148.959 195.422ZM672.885 211.144C698.929 211.144 720.053 232.269 720.053 258.312C720.053 284.356 698.929 305.48 672.885 305.48C646.841 305.48 625.766 284.356 625.766 258.312C625.766 232.269 646.841 211.144 672.885 211.144ZM148.959 213.098C175.003 213.098 196.078 234.222 196.078 260.266C196.078 286.309 175.003 307.434 148.959 307.434C122.915 307.434 101.791 286.309 101.791 260.266C101.791 234.222 122.915 213.098 148.959 213.098Z" fill="#222222"/>
<path d="M105.5 112.5L151 102.255L172 99L187.43 102.255L177 109.5L189.5 117.5L172 189L157.5 187L131.5 187L104 200.5L87 218L76.5 243.5L74 265L79 284.255L54.5 284.255L31.5 280L12.5 267L3.50003 254.5L3.50002 232.5L1.50001 175L12.5 152.5L29.5 138.5L59 126.5L105.5 112.5Z" stroke="#222222" stroke-opacity="0.133333"/>
<path d="M610.5 276L600 276L221 280L211 280L203.5 299.5L188 313L169 323.5L147.5 327.5L126.5 323.5L108.5 313L88.5002 284L85 261.5L85 237.5L104 207.5L142 190.5L177.5 182.5L779.5 182.5L779.5 202.5L779.5 222.5L781.5 234.5L777 246.5L767 254.5L747.5 266.5L738 267.5L735.5 278L728 294.5L712 309.5L694.5 320L671 323.5L649.5 318.5L629.5 307L617.5 292L610.5 276Z" stroke="#222222"/>
</svg>
