<svg width="823" height="326" viewBox="0 0 823 326" fill="none" xmlns="http://www.w3.org/2000/svg">
<path d="M482.391 0.890529C481.09 2.78575 479.674 3.57684 477.996 4.16201C472.541 6.06456 467.537 6.94094 461.15 7.72647C451.389 8.927 440.877 10.9096 431.268 12.9999C418.975 15.6738 406.912 19.2922 394.939 23.1562C384.094 26.6565 373.381 30.5941 362.859 34.9726C352.85 39.1378 343.027 43.8197 333.367 48.7421C325.139 52.935 317.074 57.4299 309.148 62.1698C301.015 67.0343 293.025 72.1702 285.223 77.5507C276.29 83.7109 267.655 90.2272 259.051 96.8378C254.062 100.67 249.03 104.502 244.305 108.654C241.115 111.457 241.423 111.903 237.273 114.709C234.093 116.859 230.21 116.553 226.629 114.855C223.048 113.158 217.107 109.631 217.107 109.631C217.107 109.631 224.239 104.3 229.852 100.402C229.749 100.419 229.605 100.487 229.51 100.5C225.943 100.992 221.353 99.6618 217.791 99.1327C215.629 98.8115 213.382 98.718 211.199 98.8397C206.451 99.1045 201.801 100.209 197.137 101.135C174.152 105.694 151.179 110.603 128.68 117.15C112.471 121.867 96.4268 127.278 80.8769 133.85C75.7058 136.035 70.4645 138.238 65.8379 141.418C61.5717 144.35 57.5855 147.816 54.3633 151.867C51.3208 155.693 49.2204 160.239 47.1367 164.66C45.1923 168.786 43.1555 172.933 42.2539 177.404C40.8508 184.363 41.5275 191.595 41.5703 198.693C41.6165 206.341 41.8453 214.031 42.5957 221.642C43.3652 229.447 44.5002 236.219 44.8418 244.055C44.9133 245.694 44.8851 248.371 44.207 249.865C43.6967 250.99 43.5883 251.222 43.2305 252.404C42.9079 253.47 43.4276 254.652 43.8652 255.676C44.913 258.126 46.5707 260.334 48.4551 262.219C49.3973 263.161 50.7587 263.598 51.7266 264.514C53.1383 265.849 53.9574 267.737 55.3398 269.103C58.275 272.004 61.4923 274.721 65.1543 276.623C70.3322 279.312 76.1617 280.613 81.8535 281.896C87.9827 283.278 94.2929 283.968 100.555 284.484C104.908 284.843 108.604 285.311 113.641 284.826C117.243 284.758 116.671 284.79 119.939 284.728C117.27 277.078 115.789 268.827 115.789 260.266C115.789 219.318 149.011 186.144 189.959 186.144C230.907 186.144 264.08 219.318 264.08 260.266C264.08 267.807 262.951 275.088 260.857 281.945C263.199 281.905 262.747 281.939 265.252 281.896C427.957 279.915 511.965 277.188 635.32 275.353C637.488 275.321 639.579 275.251 641.717 275.207C640.45 269.776 639.764 264.129 639.764 258.312C639.764 217.365 672.937 184.191 713.885 184.191C754.832 184.191 788.055 217.365 788.055 258.312C788.055 260.872 787.917 263.388 787.664 265.881C789.898 265.497 792.053 264.811 794.109 263.879C798.411 261.929 802.273 259.012 805.926 256.017C809.865 252.788 813.432 249.12 816.717 245.226C818.787 242.773 821.434 240.461 822.283 237.365C823.355 233.457 821.516 234.348 821.307 225.207C820.976 210.798 821.32 196.373 820.33 181.994C819.937 176.294 819.824 169.803 818.377 164.953C817.869 163.25 816.24 161.584 815.105 160.217C814.06 158.957 812.006 158.72 811.834 157.092C811.18 150.9 811.11 144.43 810.809 138.098C810.614 134.012 810.848 129.913 810.516 125.842C810.475 126.115 810.403 126.404 810.32 126.672C809.906 128.007 808.386 128.708 807.732 129.943C807.038 131.256 806.662 132.728 806.414 134.191C805.93 137.045 805.944 139.991 806.072 142.883C806.207 145.906 807.01 148.85 807.244 151.867C807.392 153.772 808.168 155.883 807.391 157.629C806.808 158.938 805.443 159.865 804.119 160.412C801.538 161.477 798.54 161.394 795.77 161.047C792.91 160.688 790.039 159.744 787.566 158.264C782.696 155.347 779.106 150.68 775.115 146.642C768.57 140.021 761.936 133.412 756.316 125.988C754.881 124.092 752.963 122.276 752.557 119.933C752.204 117.898 752.631 115.564 753.826 113.879C756.122 110.642 760.403 109.393 763.982 107.678C768.217 105.649 772.681 103.918 777.264 102.892C780.581 102.15 784.02 101.939 787.42 101.916C790.706 101.894 794.074 101.846 797.234 102.746C800.122 103.568 803.116 104.728 805.242 106.848C805.525 107.129 805.792 107.452 806.023 107.775C803.924 102.787 800.777 98.395 797.674 93.9569C797.073 93.7368 790.238 91.2011 786.443 90.2948C783.703 89.6403 778.582 89.6601 778.582 89.6601C778.582 89.6601 771.957 80.0574 768.279 75.5487C763.81 70.0694 759.086 64.8093 754.021 59.8749C748.505 54.5004 742.655 49.4058 736.492 44.787C730.399 40.2205 717.352 32.3358 717.352 32.3358L728.094 27.0136C726.496 25.246 728.694 20.6641 727.02 18.6151C725.75 17.0611 723.625 17.0608 720.965 17.0038C713.761 16.8494 707.011 16.4595 699.822 15.9784C690.609 15.3619 681.487 13.9135 672.332 12.7069C663.256 11.5108 654.234 9.75037 645.135 8.75186C626.31 6.6862 607.41 5.41297 588.494 4.50381C567.773 3.50789 546.973 3.84169 526.238 3.18545C518.485 2.94006 510.743 2.61459 502.996 2.20889C496.115 1.84853 489.277 0.726529 482.391 0.890529ZM536.395 19.3964C536.395 19.3964 551.568 19.4185 559.148 19.7382C570.081 20.1991 581.012 21.0642 591.912 22.0331C603.067 23.0247 614.223 24.0699 625.311 25.6464C633.377 26.7934 641.773 28.224 649.383 29.8944C651.206 30.2947 653.756 31.4468 653.826 33.3124C654.256 44.7906 654.326 55.7161 654.461 66.9062C654.605 78.8583 654.607 102.746 654.607 102.746C654.607 102.746 614.112 103.069 593.865 103.43C571.866 103.821 527.898 105.041 527.898 105.041L536.395 19.3964ZM500.701 19.5917C500.701 19.5917 495.492 48.4913 492.205 62.8046C488.744 77.8748 480.389 107.678 480.389 107.678C480.389 107.678 456.16 108.714 444.061 109.631C421.641 111.33 399.262 113.634 376.922 116.174C368.5 117.131 352.996 118.322 352.996 118.322C352.996 118.322 353.074 112.178 352.215 109.289C351.351 106.387 347.967 101.281 347.967 101.281L360.857 49.3769C360.857 49.3769 375.363 43.0718 382.83 40.539C394.417 36.6087 406.278 33.5533 418.182 30.7245C430.199 27.8687 442.343 25.3291 454.559 23.498C464.108 22.0665 473.741 21.3325 483.367 20.5683C489.144 20.1096 500.701 19.5917 500.701 19.5917ZM673.455 36.0956C673.455 36.0956 684.067 38.666 689.178 40.539C696.333 43.1611 703.402 46.1616 709.978 50.0116C718.203 54.8267 725.91 60.6216 733.074 66.9062C737.95 71.1829 743.062 75.4706 746.502 80.9687C749.545 85.8317 747.987 85.6118 743.523 87.7069C734.232 92.0677 723.886 93.7492 713.885 96.0565C704.319 98.2636 684.93 101.281 684.93 101.281L673.455 36.0956ZM353.338 52.6483C349.867 66.8445 344.876 82.1609 341.375 96.3495C341.375 96.3495 335.976 95.1068 333.367 95.3729C331.128 95.6013 327.026 96.9415 324.041 98.4979C321.436 99.856 318.304 101.859 316.033 103.723C313.586 105.731 310.779 109.315 309.637 112.267C307.978 116.554 309.637 124.67 309.637 124.67C309.637 124.67 303.153 125.258 298.992 125.695C294.854 126.131 286.541 126.672 286.541 126.672C286.541 126.672 290.578 109.892 293.426 101.769C295.351 96.2779 300.311 85.705 300.311 85.705C300.311 85.705 306.394 79.7761 309.783 77.2089C316.276 72.29 323.347 68.1329 330.437 64.1229C337.874 59.9176 353.338 52.6483 353.338 52.6483ZM141.814 130.871C142.973 130.841 144.098 130.973 145.086 131.555C146.055 132.125 146.786 133.413 146.697 134.533C146.543 136.47 144.45 137.741 143.084 139.123C138.553 143.706 133.091 147.224 128.045 151.232C120.983 156.842 114.221 162.871 106.756 167.932C103.517 170.127 100.242 172.361 96.5996 173.791C93.3704 175.059 89.8761 175.585 86.4434 176.086C80.0558 177.018 73.6108 177.492 67.1562 177.404C64.8538 177.373 62.2116 178.01 60.2715 176.769C58.9938 175.953 58.9419 173.984 57.9766 172.814C56.4993 171.025 54.5789 169.591 52.7031 168.225C51.6742 167.475 49.6512 167.525 49.4316 166.271C48.776 162.527 54.0493 160.199 56.6582 157.433C59.097 154.848 61.2073 151.544 64.5195 150.256C66.0455 149.662 67.8088 150.632 69.4023 150.256C73.4408 149.302 76.7175 146.315 80.5352 144.689C85.3316 142.647 90.3301 141.049 95.2812 139.416C100.266 137.772 105.259 136.024 110.369 134.826C114.894 133.765 119.478 133.107 124.09 132.531C128.003 132.043 131.966 131.718 135.906 131.555C137.815 131.475 139.883 130.921 141.814 130.871ZM713.885 193.469C678.076 193.469 649.041 222.504 649.041 258.312C649.041 294.121 678.076 323.156 713.885 323.156C749.693 323.156 778.728 294.121 778.728 258.312C778.728 222.504 749.693 193.469 713.885 193.469ZM189.959 195.422C154.151 195.422 125.115 224.457 125.115 260.266C125.115 296.074 154.151 325.109 189.959 325.109C225.767 325.109 254.754 296.074 254.754 260.266C254.754 224.457 225.767 195.422 189.959 195.422ZM713.885 211.144C739.929 211.144 761.053 232.269 761.053 258.312C761.053 284.356 739.929 305.48 713.885 305.48C687.841 305.48 666.766 284.356 666.766 258.312C666.766 232.269 687.841 211.144 713.885 211.144ZM189.959 213.098C216.003 213.098 237.078 234.222 237.078 260.266C237.078 286.309 216.003 307.433 189.959 307.433C163.915 307.433 142.791 286.309 142.791 260.266C142.791 234.222 163.915 213.098 189.959 213.098Z" fill="black"/>
</svg>
