<svg width="1026" height="502" viewBox="0 0 1026 502" fill="none" xmlns="http://www.w3.org/2000/svg">
<rect width="1026" height="502" fill="#1E1E1E"/>
<g clip-path="url(#clip0_0_1)">
<g clip-path="url(#clip1_0_1)">
<path d="M573.382 21.7518C571.694 24.4904 569.857 25.6335 567.68 26.4791C560.602 29.2283 554.11 30.4946 545.823 31.6297C533.158 33.3645 519.519 36.2293 507.05 39.2498C491.1 43.1136 475.448 48.3422 459.914 53.9256C445.842 58.9837 431.942 64.6734 418.29 71.0003C405.303 77.0191 392.557 83.7845 380.024 90.8973C369.348 96.956 358.883 103.451 348.6 110.3C338.047 117.329 327.679 124.751 317.556 132.526C305.967 141.427 294.763 150.843 283.598 160.396C277.126 165.934 270.596 171.47 264.465 177.47C260.327 181.52 260.726 182.165 255.342 186.219C251.216 189.327 246.178 188.884 241.531 186.431C236.885 183.978 229.177 178.881 229.177 178.881C229.177 178.881 238.43 171.179 245.712 165.546C245.579 165.57 245.393 165.668 245.269 165.687C240.641 166.398 234.685 164.476 230.064 163.712C227.258 163.248 224.343 163.113 221.511 163.288C215.35 163.671 209.317 165.267 203.265 166.605C173.442 173.193 143.635 180.286 114.442 189.747C93.4105 196.563 72.5938 204.381 52.4178 213.878C45.7083 217.036 38.9077 220.219 32.9047 224.814C27.3692 229.051 22.1972 234.058 18.0164 239.913C14.0688 245.441 11.3434 252.01 8.63989 258.399C6.11702 264.361 3.4742 270.353 2.30444 276.814C0.483917 286.869 1.36188 297.319 1.41747 307.577C1.47737 318.628 1.77432 329.74 2.74792 340.738C3.74629 352.016 5.219 361.802 5.66223 373.124C5.75497 375.493 5.71845 379.361 4.83862 381.52C4.17648 383.145 4.03588 383.481 3.57153 385.189C3.15297 386.729 3.82727 388.437 4.39514 389.916C5.75455 393.457 7.90549 396.648 10.3505 399.371C11.5729 400.732 13.3394 401.364 14.5952 402.687C16.4269 404.617 17.4898 407.345 19.2834 409.319C23.0918 413.511 27.2663 417.437 32.0177 420.185C38.736 424.071 46.2998 425.951 53.6849 427.805C61.6376 429.802 69.825 430.799 77.9497 431.545C83.5977 432.063 88.3936 432.74 94.9287 432.039C99.6027 431.941 98.8603 431.987 103.101 431.898C99.6378 420.842 97.7163 408.919 97.7163 396.549C97.7163 337.379 140.822 289.444 193.952 289.444C247.081 289.444 290.124 337.379 290.124 396.549C290.124 407.447 288.658 417.968 285.943 427.876C288.981 427.818 288.394 427.867 291.644 427.805C502.754 424.942 611.755 421.002 771.808 418.351C774.621 418.304 777.334 418.202 780.108 418.139C778.464 410.291 777.573 402.132 777.573 393.726C777.573 334.557 820.616 286.621 873.746 286.621C926.875 286.621 969.981 334.557 969.981 393.726C969.981 397.425 969.803 401.061 969.474 404.663C972.373 404.108 975.169 403.117 977.837 401.77C983.419 398.953 988.43 394.737 993.169 390.41C998.28 385.743 1002.91 380.443 1007.17 374.817C1009.86 371.272 1013.29 367.931 1014.39 363.458C1015.78 357.811 1013.4 359.098 1013.13 345.889C1012.7 325.068 1013.14 304.223 1011.86 283.446C1011.35 275.209 1011.2 265.831 1009.32 258.822C1008.66 256.362 1006.55 253.954 1005.08 251.978C1003.72 250.157 1001.06 249.815 1000.83 247.462C999.986 238.515 999.895 229.166 999.504 220.016C999.252 214.112 999.555 208.189 999.124 202.306C999.072 202.702 998.979 203.119 998.871 203.506C998.333 205.435 996.361 206.447 995.513 208.233C994.612 210.129 994.125 212.256 993.802 214.371C993.174 218.495 993.192 222.752 993.359 226.931C993.533 231.299 994.575 235.553 994.879 239.913C995.072 242.666 996.078 245.716 995.069 248.239C994.313 250.13 992.543 251.471 990.825 252.26C987.476 253.799 983.586 253.68 979.991 253.178C976.28 252.659 972.556 251.296 969.347 249.156C963.029 244.942 958.37 238.197 953.192 232.363C944.7 222.795 936.092 213.245 928.801 202.518C926.938 199.778 924.449 197.154 923.922 193.769C923.465 190.827 924.019 187.455 925.57 185.02C928.549 180.342 934.103 178.537 938.747 176.059C944.242 173.127 950.034 170.626 955.98 169.145C960.284 168.072 964.746 167.766 969.157 167.733C973.421 167.702 977.791 167.632 981.892 168.933C985.638 170.121 989.523 171.797 992.282 174.86C992.648 175.267 992.996 175.734 993.295 176.2C990.571 168.993 986.488 162.646 982.462 156.233C981.682 155.915 972.814 152.251 967.89 150.941C964.335 149.995 957.69 150.024 957.69 150.024C957.69 150.024 949.094 136.148 944.322 129.633C938.523 121.715 932.395 114.114 925.823 106.984C918.665 99.218 911.076 91.8563 903.079 85.1822C895.172 78.5836 878.244 67.1903 878.244 67.1903L892.182 59.4996C890.108 56.9455 892.96 50.3246 890.788 47.3639C889.14 45.1183 886.384 45.1179 882.932 45.0355C873.585 44.8124 864.827 44.249 855.499 43.5538C843.545 42.6629 831.709 40.57 819.831 38.8265C808.055 37.0981 796.349 34.5543 784.542 33.1114C760.117 30.1265 735.595 28.2867 711.051 26.973C684.166 25.5339 657.177 26.0162 630.274 25.068C620.214 24.7134 610.169 24.2431 600.117 23.6568C591.189 23.1361 582.317 21.5148 573.382 21.7518ZM643.452 48.4928C643.452 48.4928 663.139 48.5247 672.975 48.9867C687.161 49.6527 701.344 50.9028 715.486 52.3028C729.959 53.7356 744.435 55.246 758.82 57.524C769.287 59.1814 780.181 61.2487 790.054 63.6624C792.42 64.2409 795.729 65.9056 795.82 68.6014C796.377 85.1873 796.468 100.975 796.643 117.144C796.83 134.415 796.833 168.933 796.833 168.933C796.833 168.933 744.291 169.4 718.02 169.921C689.477 170.486 632.428 172.249 632.428 172.249L643.452 48.4928ZM597.14 48.775C597.14 48.775 590.381 90.535 586.116 111.218C581.626 132.994 570.784 176.059 570.784 176.059C570.784 176.059 539.348 177.557 523.649 178.881C494.559 181.336 465.522 184.666 436.536 188.336C425.609 189.72 405.492 191.441 405.492 191.441C405.492 191.441 405.594 182.562 404.479 178.388C403.358 174.194 398.967 166.816 398.967 166.816L415.693 91.8145C415.693 91.8145 434.513 82.7037 444.202 79.0438C459.236 73.3646 474.625 68.9495 490.071 64.8619C505.664 60.7353 521.42 57.0655 537.27 54.4195C549.66 52.3511 562.16 51.2905 574.649 50.1861C582.144 49.5234 597.14 48.775 597.14 48.775ZM821.288 72.6231C821.288 72.6231 835.057 76.3374 841.688 79.0438C850.972 82.8328 860.145 87.1685 868.677 92.7318C879.348 99.6895 889.348 108.063 898.644 117.144C904.97 123.324 911.603 129.52 916.066 137.465C920.014 144.492 917.993 144.174 912.202 147.202C900.147 153.503 886.722 155.933 873.746 159.267C861.334 162.456 836.176 166.816 836.176 166.816L821.288 72.6231ZM405.936 96.5418C401.433 117.055 394.957 139.187 390.414 159.69C390.414 159.69 383.409 157.894 380.024 158.279C377.119 158.609 371.797 160.546 367.923 162.795C364.543 164.757 360.479 167.651 357.533 170.344C354.359 173.247 350.716 178.425 349.234 182.691C347.081 188.886 349.234 200.613 349.234 200.613C349.234 200.613 340.821 201.462 335.422 202.095C330.053 202.724 319.267 203.506 319.267 203.506C319.267 203.506 324.505 179.258 328.2 167.522C330.698 159.587 337.133 144.309 337.133 144.309C337.133 144.309 345.027 135.742 349.424 132.032C357.849 124.924 367.022 118.917 376.223 113.123C385.871 107.046 405.936 96.5418 405.936 96.5418ZM131.484 209.574C132.988 209.531 134.447 209.722 135.729 210.561C136.986 211.385 137.935 213.246 137.82 214.865C137.62 217.665 134.904 219.501 133.131 221.498C127.253 228.119 120.165 233.204 113.618 238.996C104.456 247.102 95.682 255.814 85.9957 263.126C81.7931 266.299 77.544 269.527 72.818 271.593C68.6281 273.425 64.0943 274.185 59.6403 274.909C51.3525 276.256 42.99 276.941 34.6152 276.814C31.6278 276.769 28.1995 277.689 25.6822 275.897C24.0245 274.716 23.9571 271.872 22.7046 270.182C20.7878 267.595 18.2961 265.524 15.8623 263.549C14.5273 262.466 11.9024 262.539 11.6175 260.727C10.7668 255.316 17.609 251.952 20.994 247.956C24.1583 244.221 26.8965 239.446 31.1941 237.585C33.1741 236.727 35.4619 238.128 37.5295 237.585C42.7694 236.207 47.021 231.891 51.9744 229.541C58.1978 226.589 64.6833 224.28 71.1074 221.921C77.575 219.546 84.0536 217.02 90.684 215.289C96.5554 213.756 102.502 212.804 108.487 211.973C113.564 211.267 118.706 210.798 123.818 210.561C126.295 210.447 128.978 209.645 131.484 209.574ZM873.746 300.027C827.284 300.027 789.611 341.983 789.611 393.726C789.611 445.469 827.284 487.426 873.746 487.426C920.207 487.426 957.88 445.469 957.88 393.726C957.88 341.983 920.207 300.027 873.746 300.027ZM193.952 302.849C147.49 302.849 109.817 344.806 109.817 396.549C109.817 448.292 147.49 490.248 193.952 490.248C240.413 490.248 278.023 448.292 278.023 396.549C278.023 344.806 240.413 302.849 193.952 302.849ZM873.746 325.569C907.537 325.569 934.946 356.093 934.946 393.726C934.946 431.36 907.537 461.884 873.746 461.884C839.954 461.884 812.608 431.36 812.608 393.726C812.608 356.093 839.954 325.569 873.746 325.569ZM193.952 328.391C227.744 328.391 255.089 358.915 255.089 396.549C255.089 434.182 227.744 464.706 193.952 464.706C160.16 464.706 132.751 434.182 132.751 396.549C132.751 358.915 160.16 328.391 193.952 328.391Z" fill="#222222"/>
</g>
</g>
<defs>
<clipPath id="clip0_0_1">
<rect width="1026" height="502" fill="white"/>
</clipPath>
<clipPath id="clip1_0_1">
<rect width="1038" height="1156" fill="white" transform="translate(-11 -322)"/>
</clipPath>
</defs>
</svg>
